<svg width="19" height="22" viewBox="0 0 19 22" fill="none" xmlns="http://www.w3.org/2000/svg">
<path d="M1.8125 21.75C1.8125 21.75 0 21.75 0 19.9375C0 18.125 1.8125 12.6875 9.0625 12.6875C16.3125 12.6875 18.125 18.125 18.125 19.9375C18.125 21.75 16.3125 21.75 16.3125 21.75H1.8125ZM9.0625 10.875C10.5046 10.875 11.8877 10.3021 12.9074 9.28239C13.9271 8.26266 14.5 6.87961 14.5 5.4375C14.5 3.99539 13.9271 2.61234 12.9074 1.59261C11.8877 0.572878 10.5046 0 9.0625 0C7.62039 0 6.23734 0.572878 5.21761 1.59261C4.19788 2.61234 3.625 3.99539 3.625 5.4375C3.625 6.87961 4.19788 8.26266 5.21761 9.28239C6.23734 10.3021 7.62039 10.875 9.0625 10.875Z" fill="black"/>
</svg>
