<svg width="464" height="462" viewBox="0 0 464 462" fill="none" xmlns="http://www.w3.org/2000/svg">
<path d="M232 0C193.7 0 178.1 13.6 169.6 30.97C164 42.25 162.1 55.58 161.4 68H302.5C301.7 55.63 299.6 42.32 293.9 31.03C285.2 13.6 269.6 0 232 0ZM133.1 86L142.2 110H329.7L333.5 86H133.1ZM67.5 95.5C65.15 95.6 62.94 95.9 60.95 96.5C55.69 97.9 51.55 100.8 48.03 107.1C47.52 108.2 47.46 108.9 48.43 111.3C49.42 113.9 51.7301 117.5 54.4801 121.5C57.2301 125.5 60.39 129.9 62.75 135.1C65.11 140.3 66.7 146.9 64.6 153.7C61.75 162.8 55 169 47.92 173.3C40.84 177.5 33.09 180.4 25.91 183.1C18.74 185.9 12.16 188.5 7.79005 191.5C3.43005 194.4 1.53005 196.8 0.890048 200.5C-0.0899521 206.3 2.65005 212.2 8.58005 219.2C14.5201 226.2 23.09 233.4 30.37 240.6C36.73 247 36.8001 255.3 36.4701 261.3C36.1501 267.4 35.57 272.8 35.94 274.9C36.09 275.9 36.29 275.9 36.19 275.8C36.09 275.7 36.3301 276.1 38.3301 276.4C41.7801 276.9 50.1 275.9 63.02 272.2V271C63.02 211.9 82.9101 158.1 115.21 119.8C106.41 110.3 93.01 101.1 80.41 97.4C76.71 96.4 73.21 95.8 69.93 95.6C69.11 95.5 68.31 95.5 67.52 95.5H67.5ZM394.1 95.6C390.8 95.8 387.3 96.4 383.6 97.5C371 101.2 357.6 110.3 348.8 119.8C381.1 158.1 401 211.9 401 271V272.2C413.9 275.9 422.3 276.9 425.7 276.4C427.7 276.1 427.9 275.7 427.8 275.8C427.8 275.9 427.9 275.9 428.1 274.9C428.4 272.8 427.9 267.4 427.5 261.3C427.2 255.3 427.3 247 433.6 240.6C440.9 233.4 449.5 226.2 455.4 219.2C461.4 212.2 464.1 206.3 463.1 200.5C462.5 196.8 460.6 194.4 456.2 191.5C451.8 188.5 445.3 185.9 438.1 183.1C430.9 180.4 423.2 177.5 416.1 173.3C409 169 402.3 162.8 399.4 153.7C397.3 146.9 398.9 140.3 401.3 135.1C403.6 129.9 406.8 125.5 409.5 121.5C412.3 117.5 414.6 113.9 415.6 111.3C416.5 108.9 416.5 108.2 416 107.1C412.5 100.8 408.3 98 403.1 96.5C401.1 95.9 398.9 95.6 396.5 95.6H394.1ZM132 128C100.9 162.8 81 213.7 81 271C81 294.1 84.2 316.2 90.2 336.6C102.3 321.8 121 314 142 314C155.2 314 169.5 316.8 184.2 322.2C185.146 313.143 188.649 304.541 194.3 297.4C182.5 293.7 174.9 292 168 292C158 292 146.8 295.5 122.8 303.5L111 307.5V295C111 289.5 112.1 280.7 114.1 269.2C116.2 257.6 119.3 243.8 123.4 230.4C127.5 216.9 132.7 203.8 139.4 193.4C142.7 188.3 146.6 183.6 151.1 180.1L168 143L184.9 180.1C189.4 183.6 193.3 188.3 196.6 193.4C203.3 203.8 208.5 216.9 212.6 230.4C216.7 243.8 219.8 257.6 221.9 269.2C222.6 273 223.1 276.5 223.6 279.8C226.371 279.287 229.182 279.02 232 279C234.818 279.02 237.629 279.287 240.4 279.8C240.9 276.6 241.4 273 242.1 269.2C244.2 257.6 247.3 243.8 251.4 230.4C255.5 216.9 260.7 203.8 267.4 193.4C270.7 188.3 274.6 183.6 279.1 180.1L296 143L312.9 180.1C317.4 183.6 321.3 188.3 324.6 193.4C331.3 203.8 336.5 216.9 340.6 230.4C344.7 243.8 347.8 257.6 349.9 269.2C351.9 280.7 353 289.5 353 295V307.5L341.2 303.5C317.2 295.5 306 292 296 292C289.1 292 281.6 293.7 269.7 297.4C275.315 304.553 278.783 313.153 279.7 322.2C294.5 316.8 308.7 314 322 314C343 314 361.7 321.8 373.8 336.6C379.8 316.2 383 294.1 383 271C383 213.7 363.1 162.8 332 128H132ZM168 192C164.5 192 159.8 195.1 154.6 203.1C149.3 211.2 144.5 223.1 140.6 235.6C136.7 248.2 133.8 261.4 131.9 272.3C131.2 276 130.8 279 130.4 282.1C141.2 278.6 149.5 276.1 157.3 274.9C155.631 273.399 154.297 271.564 153.384 269.514C152.471 267.464 151.999 265.244 152 263C152 258.757 153.686 254.687 156.686 251.686C159.687 248.686 163.757 247 168 247C172.244 247 176.313 248.686 179.314 251.686C182.314 254.687 184 258.757 184 263C184.001 265.244 183.529 267.464 182.616 269.514C181.703 271.564 180.369 273.399 178.7 274.9C186.5 276.1 194.8 278.6 205.6 282.1C205.2 279 204.8 276 204.1 272.3C202.2 261.4 199.3 248.2 195.4 235.6C191.5 223.1 186.7 211.2 181.4 203.1C176.2 195.1 171.5 192 168 192ZM296 192C292.5 192 287.8 195.1 282.6 203.1C277.3 211.2 272.5 223.1 268.6 235.6C264.7 248.2 261.8 261.4 259.9 272.3C259.2 276 258.8 279 258.4 282.1C269.2 278.6 277.5 276.1 285.3 274.9C283.631 273.399 282.297 271.564 281.384 269.514C280.471 267.464 279.999 265.244 280 263C280 258.757 281.686 254.687 284.686 251.686C287.687 248.686 291.757 247 296 247C300.244 247 304.313 248.686 307.314 251.686C310.314 254.687 312 258.757 312 263C312.001 265.244 311.529 267.464 310.616 269.514C309.703 271.564 308.369 273.399 306.7 274.9C314.5 276.1 322.8 278.6 333.6 282.1C333.2 279 332.8 276 332.1 272.3C330.2 261.4 327.3 248.2 323.4 235.6C319.5 223.1 314.7 211.2 309.4 203.1C304.2 195.1 299.5 192 296 192ZM232 295C223.513 295 215.374 298.371 209.373 304.373C203.371 310.374 200 318.513 200 327C200.028 333.764 202.198 340.346 206.2 345.8C206.971 334.215 211.914 323.303 220.115 315.084C228.316 306.865 239.217 301.897 250.8 301.1C245.334 297.134 238.753 294.999 232 295ZM142 332C120.1 332 105.1 340.3 97.7 358.5C123 420.3 174.1 462 232 462C289.9 462 341 420.3 366.3 358.5C358.9 340.3 343.9 332 322 332C309 332 293.7 335.5 277.3 342.6C274.056 352.04 267.949 360.235 259.83 366.042C251.71 371.849 241.982 374.98 232 375C222.018 374.98 212.29 371.849 204.17 366.042C196.051 360.235 189.944 352.04 186.7 342.6C170.3 335.5 155 332 142 332ZM143.7 354.4C166.4 392.1 199.3 410 232 410C264.7 410 297.6 392.1 320.3 354.4L335.7 363.6C310.4 405.9 271.3 428 232 428C192.7 428 153.6 405.9 128.3 363.6L143.7 354.4Z" fill="black"/>
</svg>
