<svg width="14" height="14" viewBox="0 0 14 14" fill="none" xmlns="http://www.w3.org/2000/svg">
<path fill-rule="evenodd" clip-rule="evenodd" d="M13.127 6.89395L9.468 8.60195C9.44427 8.57254 9.4189 8.54449 9.392 8.51795L5.622 4.74795L5.57 4.69895L7.276 1.04395C7.34386 0.898107 7.44591 0.770786 7.57347 0.672793C7.70104 0.5748 7.85036 0.509027 8.00877 0.481055C8.16717 0.453084 8.32999 0.463739 8.48341 0.512117C8.63682 0.560495 8.77629 0.645168 8.89 0.758951L9.477 1.34695L8.135 3.12395C8.03515 3.25629 7.99196 3.42288 8.01493 3.58707C8.0379 3.75126 8.12516 3.8996 8.2575 3.99945C8.38984 4.0993 8.55643 4.1425 8.72062 4.11952C8.88481 4.09655 9.03315 4.00929 9.133 3.87695L10.369 2.23895L11.989 3.85895L10.368 4.88295C10.2986 4.92681 10.2385 4.98391 10.1912 5.051C10.1438 5.11808 10.1102 5.19383 10.0921 5.27392C10.0741 5.35401 10.072 5.43687 10.0859 5.51778C10.0999 5.59868 10.1296 5.67605 10.1735 5.74545C10.2174 5.81485 10.2745 5.87494 10.3415 5.92227C10.4086 5.96961 10.4844 6.00327 10.5645 6.02133C10.6446 6.03939 10.7274 6.0415 10.8083 6.02754C10.8892 6.01357 10.9666 5.98381 11.036 5.93995L12.894 4.76395L13.411 5.28095C13.5246 5.39459 13.6091 5.53394 13.6575 5.68719C13.7058 5.84044 13.7165 6.00308 13.6886 6.16133C13.6608 6.31959 13.5952 6.46879 13.4974 6.59632C13.3996 6.72385 13.2726 6.82594 13.127 6.89395ZM8.507 9.40195L4.737 5.63195L1.121 9.24795C0.868367 9.49436 0.667169 9.78847 0.529075 10.1132C0.39098 10.438 0.318737 10.7869 0.316536 11.1398C0.314335 11.4927 0.382219 11.8426 0.516252 12.169C0.650284 12.4955 0.847798 12.7921 1.09734 13.0416C1.34688 13.2912 1.64348 13.4887 1.96994 13.6227C2.2964 13.7567 2.64622 13.8246 2.99911 13.8224C3.35201 13.8202 3.70096 13.748 4.02572 13.6099C4.35048 13.4718 4.64459 13.2706 4.891 13.018L8.507 9.40195Z" fill="black"/>
</svg>
