<svg width="29" height="23" viewBox="0 0 29 23" fill="none" xmlns="http://www.w3.org/2000/svg">
<path d="M12.3023 0.47998C4.97578 0.47998 0.579956 6.35712 0.579956 9.29598C0.579956 12.2348 2.04504 14.4388 4.97578 14.4388C7.90652 14.4388 9.37218 15.1731 9.37218 17.3771C9.37218 20.3154 11.5698 22.5194 14.5005 22.5194C24.0253 22.5194 28.4205 17.3771 28.4205 12.2348C28.42 3.41884 21.0922 0.47998 12.3023 0.47998ZM10.4707 3.41884C10.7115 3.41915 10.95 3.46688 11.1723 3.55933C11.3947 3.65178 11.5967 3.78712 11.7668 3.95764C11.9369 4.12815 12.0717 4.33049 12.1636 4.55312C12.2555 4.77574 12.3026 5.01428 12.3023 5.25512C12.3023 6.27012 11.4822 7.09198 10.4707 7.09198C9.45918 7.09198 8.63906 6.26954 8.63906 5.25512C8.63875 5.01428 8.68589 4.77574 8.77777 4.55312C8.86965 4.33049 9.00449 4.12815 9.17457 3.95764C9.34465 3.78712 9.54666 3.65178 9.76905 3.55933C9.99144 3.46688 10.2299 3.41915 10.4707 3.41884ZM16.331 3.41884C16.5719 3.41915 16.8103 3.46688 17.0327 3.55933C17.2551 3.65178 17.4571 3.78712 17.6271 3.95764C17.7972 4.12815 17.9321 4.33049 18.0239 4.55312C18.1158 4.77574 18.163 5.01428 18.1627 5.25512C18.163 5.49601 18.116 5.73461 18.0241 5.9573C17.9323 6.17999 17.7974 6.38241 17.6273 6.55298C17.4573 6.72356 17.2552 6.85895 17.0328 6.95144C16.8104 7.04392 16.5719 7.09168 16.331 7.09198C16.0902 7.0916 15.8518 7.04379 15.6294 6.95127C15.4071 6.85875 15.2051 6.72334 15.0351 6.55278C14.865 6.38221 14.7303 6.17982 14.6384 5.95717C14.5466 5.73452 14.4996 5.49596 14.5 5.25512C14.4993 4.76882 14.6919 4.30219 15.0353 3.95784C15.3786 3.61349 15.8447 3.41961 16.331 3.41884ZM22.1925 6.35712C22.4334 6.35735 22.672 6.40505 22.8945 6.4975C23.117 6.58995 23.3191 6.72533 23.4892 6.89592C23.6594 7.0665 23.7942 7.26894 23.8861 7.49167C23.978 7.71439 24.0251 7.95304 24.0247 8.19398C24.0251 8.43489 23.978 8.67351 23.8861 8.89621C23.7942 9.1189 23.6593 9.3213 23.4892 9.49184C23.319 9.66238 23.1169 9.79771 22.8944 9.89009C22.6719 9.98248 22.4334 10.0301 22.1925 10.0303C21.9517 10.03 21.7132 9.98234 21.4908 9.88992C21.2685 9.79749 21.0665 9.66214 20.8964 9.4916C20.7264 9.32106 20.5916 9.11868 20.4998 8.89603C20.408 8.67338 20.361 8.43481 20.3614 8.19398C20.361 7.95312 20.408 7.71453 20.4998 7.49184C20.5916 7.26916 20.7263 7.06674 20.8964 6.89616C21.0664 6.72557 21.2684 6.59017 21.4908 6.49768C21.7132 6.40519 21.9516 6.35742 22.1925 6.35712ZM5.34234 7.82684C5.58312 7.82707 5.8215 7.87474 6.04385 7.96713C6.26621 8.05952 6.46818 8.19482 6.63822 8.3653C6.80827 8.53577 6.94306 8.73808 7.03488 8.96067C7.12671 9.18326 7.17378 9.42176 7.1734 9.66254C7.1734 10.6775 6.35328 11.4994 5.34234 11.4994C4.3314 11.4994 3.5107 10.677 3.5107 9.66254C3.51023 9.17625 3.70293 8.70967 4.04642 8.36543C4.3899 8.02119 4.85604 7.82746 5.34234 7.82684ZM14.5 15.1731C15.7139 15.1731 16.6976 16.1591 16.6976 17.3777C16.6976 18.5945 15.7139 19.5811 14.5 19.5811C13.286 19.5811 12.3023 18.5945 12.3023 17.3777C12.3018 17.0886 12.3582 16.8023 12.4684 16.535C12.5786 16.2678 12.7403 16.0248 12.9444 15.8201C13.1485 15.6154 13.3909 15.4529 13.6578 15.3418C13.9247 15.2308 14.2109 15.1735 14.5 15.1731Z" fill="black"/>
</svg>
