<svg width="19" height="21" viewBox="0 0 19 21" fill="none" xmlns="http://www.w3.org/2000/svg">
<path d="M16.5217 5.83333H9.44099V0H4.7205C2.12422 0 0 2.1 0 4.66667V11.6667C0 12.95 1.06211 14 2.36025 14H4.7205V17.3833C4.01242 16.9167 3.30435 16.45 2.71429 15.8667L1.06211 17.5C3.18634 19.7167 6.13665 21 9.44099 21C12.7453 21 15.6957 19.7167 17.8199 17.6167L16.1677 15.9833C15.5776 16.5667 14.9876 17.0333 14.2795 17.5V14H16.6398C17.9379 14 19 12.95 19 11.6667V8.16667C18.882 6.88333 17.8199 5.83333 16.5217 5.83333ZM11.8012 18.4333C11.0932 18.6667 10.2671 18.6667 9.44099 18.6667C8.61491 18.6667 7.78882 18.55 7.08074 18.4333V14H11.8012V18.4333Z" fill="black"/>
</svg>
