<svg width="25" height="19" viewBox="0 0 25 19" fill="none" xmlns="http://www.w3.org/2000/svg">
<path d="M21.645 2.52495C20.715 0.974951 19.01 0.199951 17.15 0.199951H7.84999C5.98999 0.199951 4.28499 0.974951 3.35499 2.52495C-0.210014 7.94995 -0.985014 16.1649 1.49499 17.8699C3.97499 19.5749 9.55499 12.1349 12.5 12.1349C15.445 12.1349 20.87 19.5749 23.505 17.8699C25.985 16.1649 25.21 7.94995 21.645 2.52495ZM9.39999 7.94995H7.84999V9.49995H6.29999V7.94995H4.74999V6.39995H6.29999V4.84995H7.84999V6.39995H9.39999V7.94995ZM17.77 8.72495C17.77 9.49995 17.15 10.1199 16.375 10.1199C15.6 10.1199 14.98 9.49995 14.98 8.72495C14.98 7.94995 15.6 7.32995 16.375 7.32995C17.15 7.32995 17.77 7.94995 17.77 8.72495ZM20.715 5.62495C20.715 6.39995 20.095 7.01995 19.32 7.01995C18.545 7.01995 17.925 6.39995 17.925 5.62495C17.925 4.84995 18.545 4.22995 19.32 4.22995C20.095 4.22995 20.715 4.84995 20.715 5.62495Z" fill="#090823"/>
</svg>
