<svg width="20" height="23" viewBox="0 0 20 23" fill="none" xmlns="http://www.w3.org/2000/svg">
<path d="M16.1811 19.1657H20L16.155 22.9989V19.1918C15.6923 19.6575 15.0638 19.9221 14.4063 19.9277C13.852 19.9279 13.3138 19.7415 12.8791 19.3988C11.7348 18.4214 10.8166 17.2085 10.1873 15.8436C9.55812 14.4787 9.23292 12.9942 9.23409 11.492C9.23526 9.98986 9.56277 8.50579 10.1941 7.14186C10.8254 5.77793 11.7456 4.5665 12.8914 3.59089C13.3662 3.22423 13.958 3.04094 14.5577 3.07475C15.1574 3.10855 15.7246 3.35719 16.155 3.77488V0L20 3.83314H16.2104C16.2763 3.89624 16.3395 3.96223 16.3995 4.03093C16.6009 4.28939 16.7492 4.58488 16.8359 4.90051C16.9226 5.21613 16.9461 5.54571 16.905 5.87038C16.8638 6.19506 16.7589 6.50846 16.5962 6.79268C16.4334 7.07689 16.2161 7.32634 15.9566 7.52676C15.4107 8.03359 14.9758 8.64741 14.6791 9.32972C14.3824 10.012 14.2304 10.7481 14.2325 11.4918C14.2328 12.2455 14.3897 12.9911 14.6933 13.6814C14.9969 14.3717 15.4407 14.9919 15.9966 15.5028C16.5034 15.9225 16.8247 16.5237 16.8915 17.1772C16.9582 17.8307 16.765 18.4841 16.3534 18.9971C16.3011 19.0599 16.2381 19.1075 16.1811 19.1657ZM1.55015 0L0.0121467 8.43292C-0.212401 9.66719 2.75133 10.2437 2.70365 11.4994L2.31915 21.4656C2.31114 21.6691 2.34545 21.872 2.41991 22.0617C2.49436 22.2513 2.60737 22.4235 2.75181 22.5675C2.89626 22.7115 3.06902 22.8242 3.25924 22.8984C3.44946 22.9726 3.65303 23.0068 3.85715 22.9989C4.06127 23.0068 4.26483 22.9726 4.45506 22.8984C4.64528 22.8242 4.81804 22.7115 4.96248 22.5675C5.10693 22.4235 5.21993 22.2513 5.29439 22.0617C5.36885 21.872 5.40315 21.6691 5.39515 21.4656L5.01065 11.4994C4.96297 10.2452 7.676 9.69019 7.70215 8.43292L6.16415 0H5.39515L5.77965 6.13303L4.62615 6.89966L4.24165 0H3.47265L3.08815 6.89966L1.93465 6.13303L2.31915 0H1.55015Z" fill="black"/>
</svg>
